<svg width="18" height="18" viewBox="0 0 18 18" fill="none" xmlns="http://www.w3.org/2000/svg">
<path d="M9 17.4819C4.37646 17.4819 0.533203 13.647 0.533203 9.01514C0.533203 4.3916 4.36816 0.54834 8.9917 0.54834C13.6235 0.54834 17.4668 4.3916 17.4668 9.01514C17.4668 13.647 13.6318 17.4819 9 17.4819ZM9 8.75781C10.2119 8.76611 11.1997 7.72852 11.1997 6.35059C11.1997 5.07227 10.2119 4.00977 9 4.00977C7.78809 4.00977 6.80029 5.07227 6.80029 6.35059C6.80029 7.72852 7.78809 8.74951 9 8.75781ZM5.09033 13.3647L12.9097 13.3647C13.2583 13.3647 13.416 13.1406 13.416 12.8252C13.416 11.8955 12.0049 9.46338 9 9.46338C5.99512 9.46338 4.58398 11.8955 4.58398 12.8252C4.58398 13.1406 4.7417 13.3647 5.09033 13.3647Z" fill="url(#paint0_linear_662_3567)" style="mix-blend-mode:overlay"/>
<defs>
<linearGradient id="paint0_linear_662_3567" x1="9" y1="-1" x2="9" y2="19" gradientUnits="userSpaceOnUse">
<stop stop-color="white" stop-opacity="0.8"/>
<stop offset="1" stop-color="white" stop-opacity="0.3"/>
</linearGradient>
</defs>
</svg>
